STARTFONT 2.1
COMMENT Copyright (C) 1990-1991 EWT Consulting
COMMENT Portions Copyright (C) 1994-1995 Cronyx Ltd.
COMMENT Modified by Serge Vakulenko, <vak@cronyx.ru>
COMMENT Encoding changed to CP1251 by Rabinovich Moisei, <moisei@cs.bgu.ac.il>,$
COMMENT This software may be used, modified, copied, distributed, and sold,
COMMENT in both source and binary form provided that the copyright
COMMENT and these terms are retained. Under no circumstances is the author
COMMENT responsible for the proper functioning of this software, nor does
COMMENT the author assume any responsibility for damages incurred with its use.
FONT -Cronyx-Courier-Medium-R-Normal--8-80-75-75-M-50-RAWIN-R
SIZE 8 96 96
FONTBOUNDINGBOX 8 13 0 -2
STARTPROPERTIES 19
DEFAULT_CHAR 32
FONT_ASCENT 11
FONT_DESCENT 2
SPACING "M"
FONTNAME_REGISTRY ""
FOUNDRY "Cronyx"
FAMILY_NAME "Courier"
WEIGHT_NAME "Medium"
SLANT "R"
SETWIDTH_NAME "Normal"
ADD_STYLE_NAME ""
AVERAGE_WIDTH 50
CHARSET_REGISTRY "RAWIN"
CHARSET_ENCODING "R"
PIXEL_SIZE 8
POINT_SIZE 80
RESOLUTION_X 75
RESOLUTION_Y 75
COPYRIGHT "Copyright (C) 1990, 1991 EWT Consulting, Portions Copyright (C) 1994 Cronyx Ltd."
ENDPROPERTIES
CHARS 224
STARTCHAR space
ENCODING 32
SWIDTH 615 0
DWIDTH 8 0
BBX 8 13 0 -2
BITMAP
00
00
00
00
00
00
00
00
00
00
00
00
00
ENDCHAR
STARTCHAR exclam
ENCODING 33
SWIDTH 615 0
DWIDTH 8 0
BBX 8 13 0 -2
BITMAP
00
00
08
08
08
08
08
08
08
00
08
00
00
ENDCHAR
STARTCHAR quotedbl
ENCODING 34
SWIDTH 615 0
DWIDTH 8 0
BBX 8 13 0 -2
BITMAP
00
00
14
14
14
00
00
00
00
00
00
00
00
ENDCHAR
STARTCHAR numbersign
ENCODING 35
SWIDTH 615 0
DWIDTH 8 0
BBX 8 13 0 -2
BITMAP
00
00
0a
0a
3f
14
14
14
7e
28
28
00
00
ENDCHAR
STARTCHAR dollar
ENCODING 36
SWIDTH 615 0
DWIDTH 8 0
BBX 8 13 0 -2
BITMAP
00
00
08
1c
22
20
1c
02
22
1c
08
00
00
ENDCHAR
STARTCHAR percent
ENCODING 37
SWIDTH 615 0
DWIDTH 8 0
BBX 8 13 0 -2
BITMAP
00
00
20
51
22
04
08
10
22
45
02
00
00
ENDCHAR
STARTCHAR ampersand
ENCODING 38
SWIDTH 615 0
DWIDTH 8 0
BBX 8 13 0 -2
BITMAP
00
00
18
20
20
10
30
49
4a
44
3b
00
00
ENDCHAR
STARTCHAR quoteright
ENCODING 39
SWIDTH 615 0
DWIDTH 8 0
BBX 8 13 0 -2
BITMAP
00
00
08
08
08
00
00
00
00
00
00
00
00
ENDCHAR
STARTCHAR parenleft
ENCODING 40
SWIDTH 615 0
DWIDTH 8 0
BBX 8 13 0 -2
BITMAP
00
00
04
08
08
10
10
10
10
10
08
08
04
ENDCHAR
STARTCHAR parenright
ENCODING 41
SWIDTH 615 0
DWIDTH 8 0
BBX 8 13 0 -2
BITMAP
00
00
10
08
08
04
04
04
04
04
08
08
10
ENDCHAR
STARTCHAR asterisk
ENCODING 42
SWIDTH 615 0
DWIDTH 8 0
BBX 8 13 0 -2
BITMAP
00
00
00
00
36
1c
7f
1c
36
00
00
00
00
ENDCHAR
STARTCHAR plus
ENCODING 43
SWIDTH 615 0
DWIDTH 8 0
BBX 8 13 0 -2
BITMAP
00
00
00
00
08
08
08
7f
08
08
08
00
00
ENDCHAR
STARTCHAR comma
ENCODING 44
SWIDTH 615 0
DWIDTH 8 0
BBX 8 13 0 -2
BITMAP
00
00
00
00
00
00
00
00
00
00
08
10
00
ENDCHAR
STARTCHAR minus
ENCODING 45
SWIDTH 615 0
DWIDTH 8 0
BBX 8 13 0 -2
BITMAP
00
00
00
00
00
00
00
7f
00
00
00
00
00
ENDCHAR
STARTCHAR period
ENCODING 46
SWIDTH 615 0
DWIDTH 8 0
BBX 8 13 0 -2
BITMAP
00
00
00
00
00
00
00
00
00
00
08
00
00
ENDCHAR
STARTCHAR slash
ENCODING 47
SWIDTH 615 0
DWIDTH 8 0
BBX 8 13 0 -2
BITMAP
00
00
00
01
02
04
08
10
20
40
00
00
00
ENDCHAR
STARTCHAR zero
ENCODING 48
SWIDTH 615 0
DWIDTH 8 0
BBX 8 13 0 -2
BITMAP
00
00
1c
22
22
22
22
22
22
22
1c
00
00
ENDCHAR
STARTCHAR one
ENCODING 49
SWIDTH 615 0
DWIDTH 8 0
BBX 8 13 0 -2
BITMAP
00
00
08
38
08
08
08
08
08
08
3e
00
00
ENDCHAR
STARTCHAR two
ENCODING 50
SWIDTH 615 0
DWIDTH 8 0
BBX 8 13 0 -2
BITMAP
00
00
1c
22
02
02
04
08
10
20
3e
00
00
ENDCHAR
STARTCHAR three
ENCODING 51
SWIDTH 615 0
DWIDTH 8 0
BBX 8 13 0 -2
BITMAP
00
00
1c
22
02
02
0c
02
02
22
1c
00
00
ENDCHAR
STARTCHAR four
ENCODING 52
SWIDTH 615 0
DWIDTH 8 0
BBX 8 13 0 -2
BITMAP
00
00
04
0c
0c
14
14
24
3e
04
0e
00
00
ENDCHAR
STARTCHAR five
ENCODING 53
SWIDTH 615 0
DWIDTH 8 0
BBX 8 13 0 -2
BITMAP
00
00
3e
20
20
20
3c
02
02
22
1c
00
00
ENDCHAR
STARTCHAR six
ENCODING 54
SWIDTH 615 0
DWIDTH 8 0
BBX 8 13 0 -2
BITMAP
00
00
0c
10
20
20
3c
22
22
22
1c
00
00
ENDCHAR
STARTCHAR seven
ENCODING 55
SWIDTH 615 0
DWIDTH 8 0
BBX 8 13 0 -2
BITMAP
00
00
3e
22
02
04
04
08
08
10
10
00
00
ENDCHAR
STARTCHAR eight
ENCODING 56
SWIDTH 615 0
DWIDTH 8 0
BBX 8 13 0 -2
BITMAP
00
00
1c
22
22
22
1c
22
22
22
1c
00
00
ENDCHAR
STARTCHAR nine
ENCODING 57
SWIDTH 615 0
DWIDTH 8 0
BBX 8 13 0 -2
BITMAP
00
00
1c
22
22
22
1e
02
02
04
18
00
00
ENDCHAR
STARTCHAR colon
ENCODING 58
SWIDTH 615 0
DWIDTH 8 0
BBX 8 13 0 -2
BITMAP
00
00
00
00
00
08
00
00
00
00
08
00
00
ENDCHAR
STARTCHAR semicolon
ENCODING 59
SWIDTH 615 0
DWIDTH 8 0
BBX 8 13 0 -2
BITMAP
00
00
00
00
00
08
00
00
00
00
08
10
00
ENDCHAR
STARTCHAR less
ENCODING 60
SWIDTH 615 0
DWIDTH 8 0
BBX 8 13 0 -2
BITMAP
00
00
00
00
04
08
10
20
10
08
04
00
00
ENDCHAR
STARTCHAR equal
ENCODING 61
SWIDTH 615 0
DWIDTH 8 0
BBX 8 13 0 -2
BITMAP
00
00
00
00
00
3e
00
3e
00
00
00
00
00
ENDCHAR
STARTCHAR greater
ENCODING 62
SWIDTH 615 0
DWIDTH 8 0
BBX 8 13 0 -2
BITMAP
00
00
00
00
10
08
04
02
04
08
10
00
00
ENDCHAR
STARTCHAR question
ENCODING 63
SWIDTH 615 0
DWIDTH 8 0
BBX 8 13 0 -2
BITMAP
00
00
1c
22
02
02
04
08
08
00
08
00
00
ENDCHAR
STARTCHAR at
ENCODING 64
SWIDTH 615 0
DWIDTH 8 0
BBX 8 13 0 -2
BITMAP
00
00
1e
21
4d
55
55
55
4e
20
1c
00
00
ENDCHAR
STARTCHAR A
ENCODING 65
SWIDTH 615 0
DWIDTH 8 0
BBX 8 13 0 -2
BITMAP
00
00
18
08
08
14
14
22
3e
22
77
00
00
ENDCHAR
STARTCHAR B
ENCODING 66
SWIDTH 615 0
DWIDTH 8 0
BBX 8 13 0 -2
BITMAP
00
00
7e
21
21
21
3e
21
21
21
7e
00
00
ENDCHAR
STARTCHAR C
ENCODING 67
SWIDTH 615 0
DWIDTH 8 0
BBX 8 13 0 -2
BITMAP
00
00
1e
21
40
40
40
40
40
21
1e
00
00
ENDCHAR
STARTCHAR D
ENCODING 68
SWIDTH 615 0
DWIDTH 8 0
BBX 8 13 0 -2
BITMAP
00
00
7c
22
21
21
21
21
21
22
7c
00
00
ENDCHAR
STARTCHAR E
ENCODING 69
SWIDTH 615 0
DWIDTH 8 0
BBX 8 13 0 -2
BITMAP
00
00
7f
21
20
24
3c
24
20
21
7f
00
00
ENDCHAR
STARTCHAR F
ENCODING 70
SWIDTH 615 0
DWIDTH 8 0
BBX 8 13 0 -2
BITMAP
00
00
7f
21
20
24
3c
24
20
20
78
00
00
ENDCHAR
STARTCHAR G
ENCODING 71
SWIDTH 615 0
DWIDTH 8 0
BBX 8 13 0 -2
BITMAP
00
00
1e
21
40
40
40
47
41
21
1e
00
00
ENDCHAR
STARTCHAR H
ENCODING 72
SWIDTH 615 0
DWIDTH 8 0
BBX 8 13 0 -2
BITMAP
00
00
77
22
22
22
3e
22
22
22
77
00
00
ENDCHAR
STARTCHAR I
ENCODING 73
SWIDTH 615 0
DWIDTH 8 0
BBX 8 13 0 -2
BITMAP
00
00
3e
08
08
08
08
08
08
08
3e
00
00
ENDCHAR
STARTCHAR J
ENCODING 74
SWIDTH 615 0
DWIDTH 8 0
BBX 8 13 0 -2
BITMAP
00
00
1e
04
04
04
04
04
44
44
38
00
00
ENDCHAR
STARTCHAR K
ENCODING 75
SWIDTH 615 0
DWIDTH 8 0
BBX 8 13 0 -2
BITMAP
00
00
73
22
24
24
28
38
24
22
73
00
00
ENDCHAR
STARTCHAR L
ENCODING 76
SWIDTH 615 0
DWIDTH 8 0
BBX 8 13 0 -2
BITMAP
00
00
7c
10
10
10
10
10
10
11
7f
00
00
ENDCHAR
STARTCHAR M
ENCODING 77
SWIDTH 615 0
DWIDTH 8 0
BBX 8 13 0 -2
BITMAP
00
00
63
22
36
36
2a
2a
22
22
77
00
00
ENDCHAR
STARTCHAR N
ENCODING 78
SWIDTH 615 0
DWIDTH 8 0
BBX 8 13 0 -2
BITMAP
00
00
67
22
32
32
2a
26
26
22
72
00
00
ENDCHAR
STARTCHAR O
ENCODING 79
SWIDTH 615 0
DWIDTH 8 0
BBX 8 13 0 -2
BITMAP
00
00
1c
22
41
41
41
41
41
22
1c
00
00
ENDCHAR
STARTCHAR P
ENCODING 80
SWIDTH 615 0
DWIDTH 8 0
BBX 8 13 0 -2
BITMAP
00
00
7e
21
21
21
3e
20
20
20
78
00
00
ENDCHAR
STARTCHAR Q
ENCODING 81
SWIDTH 615 0
DWIDTH 8 0
BBX 8 13 0 -2
BITMAP
00
00
1c
22
41
41
41
41
41
22
1c
1b
00
ENDCHAR
STARTCHAR R
ENCODING 82
SWIDTH 615 0
DWIDTH 8 0
BBX 8 13 0 -2
BITMAP
00
00
7e
21
21
21
3e
24
24
22
73
00
00
ENDCHAR
STARTCHAR S
ENCODING 83
SWIDTH 615 0
DWIDTH 8 0
BBX 8 13 0 -2
BITMAP
00
00
3e
41
40
40
3e
01
01
41
3e
00
00
ENDCHAR
STARTCHAR T
ENCODING 84
SWIDTH 615 0
DWIDTH 8 0
BBX 8 13 0 -2
BITMAP
00
00
7f
49
08
08
08
08
08
08
1c
00
00
ENDCHAR
STARTCHAR U
ENCODING 85
SWIDTH 615 0
DWIDTH 8 0
BBX 8 13 0 -2
BITMAP
00
00
77
22
22
22
22
22
22
22
1c
00
00
ENDCHAR
STARTCHAR V
ENCODING 86
SWIDTH 615 0
DWIDTH 8 0
BBX 8 13 0 -2
BITMAP
00
00
77
22
22
22
14
14
14
08
08
00
00
ENDCHAR
STARTCHAR W
ENCODING 87
SWIDTH 615 0
DWIDTH 8 0
BBX 8 13 0 -2
BITMAP
00
00
77
22
22
22
2a
2a
2a
14
14
00
00
ENDCHAR
STARTCHAR X
ENCODING 88
SWIDTH 615 0
DWIDTH 8 0
BBX 8 13 0 -2
BITMAP
00
00
77
22
14
14
08
14
14
22
77
00
00
ENDCHAR
STARTCHAR Y
ENCODING 89
SWIDTH 615 0
DWIDTH 8 0
BBX 8 13 0 -2
BITMAP
00
00
77
22
22
14
14
08
08
08
1c
00
00
ENDCHAR
STARTCHAR Z
ENCODING 90
SWIDTH 615 0
DWIDTH 8 0
BBX 8 13 0 -2
BITMAP
00
00
7f
42
04
04
08
10
10
21
7f
00
00
ENDCHAR
STARTCHAR bracketleft
ENCODING 91
SWIDTH 615 0
DWIDTH 8 0
BBX 8 13 0 -2
BITMAP
00
00
1c
10
10
10
10
10
10
10
10
10
1c
ENDCHAR
STARTCHAR backslash
ENCODING 92
SWIDTH 615 0
DWIDTH 8 0
BBX 8 13 0 -2
BITMAP
00
00
00
40
20
10
08
04
02
01
00
00
00
ENDCHAR
STARTCHAR bracketright
ENCODING 93
SWIDTH 615 0
DWIDTH 8 0
BBX 8 13 0 -2
BITMAP
00
00
00
1c
04
04
04
04
04
04
04
04
1c
ENDCHAR
STARTCHAR asciicircum
ENCODING 94
SWIDTH 615 0
DWIDTH 8 0
BBX 8 13 0 -2
BITMAP
00
08
14
22
00
00
00
00
00
00
00
00
00
ENDCHAR
STARTCHAR underscore
ENCODING 95
SWIDTH 615 0
DWIDTH 8 0
BBX 8 13 0 -2
BITMAP
00
00
00
00
00
00
00
00
00
00
00
00
ff
ENDCHAR
STARTCHAR quoteleft
ENCODING 96
SWIDTH 615 0
DWIDTH 8 0
BBX 8 13 0 -2
BITMAP
00
00
10
08
00
00
00
00
00
00
00
00
00
ENDCHAR
STARTCHAR a
ENCODING 97
SWIDTH 615 0
DWIDTH 8 0
BBX 8 13 0 -2
BITMAP
00
00
00
00
00
3c
02
3e
42
42
3d
00
00
ENDCHAR
STARTCHAR b
ENCODING 98
SWIDTH 615 0
DWIDTH 8 0
BBX 8 13 0 -2
BITMAP
00
00
60
20
20
3e
21
21
21
21
7e
00
00
ENDCHAR
STARTCHAR c
ENCODING 99
SWIDTH 615 0
DWIDTH 8 0
BBX 8 13 0 -2
BITMAP
00
00
00
00
00
3e
41
40
40
41
3e
00
00
ENDCHAR
STARTCHAR d
ENCODING 100
SWIDTH 615 0
DWIDTH 8 0
BBX 8 13 0 -2
BITMAP
00
00
06
02
02
3e
42
42
42
42
3f
00
00
ENDCHAR
STARTCHAR e
ENCODING 101
SWIDTH 615 0
DWIDTH 8 0
BBX 8 13 0 -2
BITMAP
00
00
00
00
00
3e
41
7f
40
41
3e
00
00
ENDCHAR
STARTCHAR f
ENCODING 102
SWIDTH 615 0
DWIDTH 8 0
BBX 8 13 0 -2
BITMAP
00
00
0c
10
10
3c
10
10
10
10
3c
00
00
ENDCHAR
STARTCHAR g
ENCODING 103
SWIDTH 615 0
DWIDTH 8 0
BBX 8 13 0 -2
BITMAP
00
00
00
00
00
3f
42
42
42
3e
02
02
3c
ENDCHAR
STARTCHAR h
ENCODING 104
SWIDTH 615 0
DWIDTH 8 0
BBX 8 13 0 -2
BITMAP
00
00
60
20
20
2c
32
22
22
22
77
00
00
ENDCHAR
STARTCHAR i
ENCODING 105
SWIDTH 615 0
DWIDTH 8 0
BBX 8 13 0 -2
BITMAP
00
00
08
00
00
38
08
08
08
08
3e
00
00
ENDCHAR
STARTCHAR j
ENCODING 106
SWIDTH 615 0
DWIDTH 8 0
BBX 8 13 0 -2
BITMAP
00
00
04
00
00
3c
04
04
04
04
04
04
38
ENDCHAR
STARTCHAR k
ENCODING 107
SWIDTH 615 0
DWIDTH 8 0
BBX 8 13 0 -2
BITMAP
00
00
60
20
20
26
24
28
38
24
63
00
00
ENDCHAR
STARTCHAR l
ENCODING 108
SWIDTH 615 0
DWIDTH 8 0
BBX 8 13 0 -2
BITMAP
00
00
18
08
08
08
08
08
08
08
3e
00
00
ENDCHAR
STARTCHAR m
ENCODING 109
SWIDTH 615 0
DWIDTH 8 0
BBX 8 13 0 -2
BITMAP
00
00
00
00
00
74
2a
2a
2a
2a
6b
00
00
ENDCHAR
STARTCHAR n
ENCODING 110
SWIDTH 615 0
DWIDTH 8 0
BBX 8 13 0 -2
BITMAP
00
00
00
00
00
6c
32
22
22
22
77
00
00
ENDCHAR
STARTCHAR o
ENCODING 111
SWIDTH 615 0
DWIDTH 8 0
BBX 8 13 0 -2
BITMAP
00
00
00
00
00
3e
41
41
41
41
3e
00
00
ENDCHAR
STARTCHAR p
ENCODING 112
SWIDTH 615 0
DWIDTH 8 0
BBX 8 13 0 -2
BITMAP
00
00
00
00
00
7e
21
21
21
21
3e
20
70
ENDCHAR
STARTCHAR q
ENCODING 113
SWIDTH 615 0
DWIDTH 8 0
BBX 8 13 0 -2
BITMAP
00
00
00
00
00
3f
42
42
42
42
3e
02
07
ENDCHAR
STARTCHAR r
ENCODING 114
SWIDTH 615 0
DWIDTH 8 0
BBX 8 13 0 -2
BITMAP
00
00
00
00
00
76
19
10
10
10
7c
00
00
ENDCHAR
STARTCHAR s
ENCODING 115
SWIDTH 615 0
DWIDTH 8 0
BBX 8 13 0 -2
BITMAP
00
00
00
00
00
3e
41
38
06
41
3e
00
00
ENDCHAR
STARTCHAR t
ENCODING 116
SWIDTH 615 0
DWIDTH 8 0
BBX 8 13 0 -2
BITMAP
00
00
00
10
10
3c
10
10
10
12
0c
00
00
ENDCHAR
STARTCHAR u
ENCODING 117
SWIDTH 615 0
DWIDTH 8 0
BBX 8 13 0 -2
BITMAP
00
00
00
00
00
66
22
22
22
26
1b
00
00
ENDCHAR
STARTCHAR v
ENCODING 118
SWIDTH 615 0
DWIDTH 8 0
BBX 8 13 0 -2
BITMAP
00
00
00
00
00
77
22
22
14
14
08
00
00
ENDCHAR
STARTCHAR w
ENCODING 119
SWIDTH 615 0
DWIDTH 8 0
BBX 8 13 0 -2
BITMAP
00
00
00
00
00
77
22
2a
2a
14
14
00
00
ENDCHAR
STARTCHAR x
ENCODING 120
SWIDTH 615 0
DWIDTH 8 0
BBX 8 13 0 -2
BITMAP
00
00
00
00
00
77
22
1c
1c
22
77
00
00
ENDCHAR
STARTCHAR y
ENCODING 121
SWIDTH 615 0
DWIDTH 8 0
BBX 8 13 0 -2
BITMAP
00
00
00
00
00
77
22
22
14
14
08
08
30
ENDCHAR
STARTCHAR z
ENCODING 122
SWIDTH 615 0
DWIDTH 8 0
BBX 8 13 0 -2
BITMAP
00
00
00
00
00
7e
44
08
10
22
7e
00
00
ENDCHAR
STARTCHAR braceleft
ENCODING 123
SWIDTH 615 0
DWIDTH 8 0
BBX 8 13 0 -2
BITMAP
00
00
06
08
08
08
08
30
08
08
08
08
06
ENDCHAR
STARTCHAR bar
ENCODING 124
SWIDTH 615 0
DWIDTH 8 0
BBX 8 13 0 -2
BITMAP
00
08
08
08
08
08
08
08
08
08
08
08
08
ENDCHAR
STARTCHAR braceright
ENCODING 125
SWIDTH 615 0
DWIDTH 8 0
BBX 8 13 0 -2
BITMAP
00
00
30
08
08
08
08
06
08
08
08
08
30
ENDCHAR
STARTCHAR asciitilde
ENCODING 126
SWIDTH 615 0
DWIDTH 8 0
BBX 8 13 0 -2
BITMAP
00
00
00
31
49
46
00
00
00
00
00
00
00
ENDCHAR
STARTCHAR C177
ENCODING -1
SWIDTH 615 0
DWIDTH 8 0
BBX 8 13 0 -2
BITMAP
00
00
00
1c
1c
1c
1c
1c
1c
1c
1c
1c
00
ENDCHAR
STARTCHAR C200
ENCODING -1
SWIDTH 615 0
DWIDTH 8 0
BBX 8 13 0 -2
BITMAP
00
00
00
1c
1c
1c
1c
1c
1c
1c
1c
1c
00
ENDCHAR
STARTCHAR C201
ENCODING -1
SWIDTH 615 0
DWIDTH 8 0
BBX 8 13 0 -2
BITMAP
00
00
00
1c
1c
1c
1c
1c
1c
1c
1c
1c
00
ENDCHAR
STARTCHAR C202
ENCODING -1
SWIDTH 615 0
DWIDTH 8 0
BBX 8 13 0 -2
BITMAP
00
00
00
1c
1c
1c
1c
1c
1c
1c
1c
1c
00
ENDCHAR
STARTCHAR C203
ENCODING -1
SWIDTH 615 0
DWIDTH 8 0
BBX 8 13 0 -2
BITMAP
00
00
00
1c
1c
1c
1c
1c
1c
1c
1c
1c
00
ENDCHAR
STARTCHAR C204
ENCODING -1
SWIDTH 615 0
DWIDTH 8 0
BBX 8 13 0 -2
BITMAP
00
00
00
1c
1c
1c
1c
1c
1c
1c
1c
1c
00
ENDCHAR
STARTCHAR C205
ENCODING -1
SWIDTH 615 0
DWIDTH 8 0
BBX 8 13 0 -2
BITMAP
00
00
00
1c
1c
1c
1c
1c
1c
1c
1c
1c
00
ENDCHAR
STARTCHAR C206
ENCODING -1
SWIDTH 615 0
DWIDTH 8 0
BBX 8 13 0 -2
BITMAP
00
00
00
1c
1c
1c
1c
1c
1c
1c
1c
1c
00
ENDCHAR
STARTCHAR C207
ENCODING -1
SWIDTH 615 0
DWIDTH 8 0
BBX 8 13 0 -2
BITMAP
00
00
00
1c
1c
1c
1c
1c
1c
1c
1c
1c
00
ENDCHAR
STARTCHAR C210
ENCODING -1
SWIDTH 615 0
DWIDTH 8 0
BBX 8 13 0 -2
BITMAP
00
00
00
1c
1c
1c
1c
1c
1c
1c
1c
1c
00
ENDCHAR
STARTCHAR C211
ENCODING -1
SWIDTH 615 0
DWIDTH 8 0
BBX 8 13 0 -2
BITMAP
00
00
00
1c
1c
1c
1c
1c
1c
1c
1c
1c
00
ENDCHAR
STARTCHAR C212
ENCODING -1
SWIDTH 615 0
DWIDTH 8 0
BBX 8 13 0 -2
BITMAP
00
00
00
1c
1c
1c
1c
1c
1c
1c
1c
1c
00
ENDCHAR
STARTCHAR C213
ENCODING -1
SWIDTH 615 0
DWIDTH 8 0
BBX 8 13 0 -2
BITMAP
00
00
00
1c
1c
1c
1c
1c
1c
1c
1c
1c
00
ENDCHAR
STARTCHAR C214
ENCODING -1
SWIDTH 615 0
DWIDTH 8 0
BBX 8 13 0 -2
BITMAP
00
00
00
1c
1c
1c
1c
1c
1c
1c
1c
1c
00
ENDCHAR
STARTCHAR C215
ENCODING -1
SWIDTH 615 0
DWIDTH 8 0
BBX 8 13 0 -2
BITMAP
00
00
00
1c
1c
1c
1c
1c
1c
1c
1c
1c
00
ENDCHAR
STARTCHAR C216
ENCODING -1
SWIDTH 615 0
DWIDTH 8 0
BBX 8 13 0 -2
BITMAP
00
00
00
1c
1c
1c
1c
1c
1c
1c
1c
1c
00
ENDCHAR
STARTCHAR C217
ENCODING -1
SWIDTH 615 0
DWIDTH 8 0
BBX 8 13 0 -2
BITMAP
00
00
00
1c
1c
1c
1c
1c
1c
1c
1c
1c
00
ENDCHAR
STARTCHAR C220
ENCODING -1
SWIDTH 615 0
DWIDTH 8 0
BBX 8 13 0 -2
BITMAP
00
00
00
1c
1c
1c
1c
1c
1c
1c
1c
1c
00
ENDCHAR
STARTCHAR C221
ENCODING -1
SWIDTH 615 0
DWIDTH 8 0
BBX 8 13 0 -2
BITMAP
00
00
08
10
00
00
00
00
00
00
00
00
00
ENDCHAR
STARTCHAR C222
ENCODING -1
SWIDTH 615 0
DWIDTH 8 0
BBX 8 13 0 -2
BITMAP
00
00
08
10
00
00
00
00
00
00
00
00
00
ENDCHAR
STARTCHAR C223
ENCODING -1
SWIDTH 615 0
DWIDTH 8 0
BBX 8 13 0 -2
BITMAP
00
00
00
1c
1c
1c
1c
1c
1c
1c
1c
1c
00
ENDCHAR
STARTCHAR C224
ENCODING -1
SWIDTH 615 0
DWIDTH 8 0
BBX 8 13 0 -2
BITMAP
00
00
00
1c
1c
1c
1c
1c
1c
1c
1c
1c
00
ENDCHAR
STARTCHAR C225
ENCODING -1
SWIDTH 615 0
DWIDTH 8 0
BBX 8 13 0 -2
BITMAP
00
00
00
1c
1c
1c
1c
1c
1c
1c
1c
1c
00
ENDCHAR
STARTCHAR C226
ENCODING -1
SWIDTH 615 0
DWIDTH 8 0
BBX 8 13 0 -2
BITMAP
00
00
00
1c
1c
1c
1c
1c
1c
1c
1c
1c
00
ENDCHAR
STARTCHAR C227
ENCODING -1
SWIDTH 615 0
DWIDTH 8 0
BBX 8 13 0 -2
BITMAP
00
00
00
1c
1c
1c
1c
1c
1c
1c
1c
1c
00
ENDCHAR
STARTCHAR C230
ENCODING -1
SWIDTH 615 0
DWIDTH 8 0
BBX 8 13 0 -2
BITMAP
00
00
00
1c
1c
1c
1c
1c
1c
1c
1c
1c
00
ENDCHAR
STARTCHAR C231
ENCODING -1
SWIDTH 615 0
DWIDTH 8 0
BBX 8 13 0 -2
BITMAP
00
00
00
1c
1c
1c
1c
1c
1c
1c
1c
1c
00
ENDCHAR
STARTCHAR C232
ENCODING -1
SWIDTH 615 0
DWIDTH 8 0
BBX 8 13 0 -2
BITMAP
00
00
00
1c
1c
1c
1c
1c
1c
1c
1c
1c
00
ENDCHAR
STARTCHAR C233
ENCODING -1
SWIDTH 615 0
DWIDTH 8 0
BBX 8 13 0 -2
BITMAP
00
00
00
1c
1c
1c
1c
1c
1c
1c
1c
1c
00
ENDCHAR
STARTCHAR C234
ENCODING -1
SWIDTH 615 0
DWIDTH 8 0
BBX 8 13 0 -2
BITMAP
00
00
00
1c
1c
1c
1c
1c
1c
1c
1c
1c
00
ENDCHAR
STARTCHAR C235
ENCODING -1
SWIDTH 615 0
DWIDTH 8 0
BBX 8 13 0 -2
BITMAP
00
00
00
1c
1c
1c
1c
1c
1c
1c
1c
1c
00
ENDCHAR
STARTCHAR C236
ENCODING -1
SWIDTH 615 0
DWIDTH 8 0
BBX 8 13 0 -2
BITMAP
00
00
00
1c
1c
1c
1c
1c
1c
1c
1c
1c
00
ENDCHAR
STARTCHAR C237
ENCODING -1
SWIDTH 615 0
DWIDTH 8 0
BBX 8 13 0 -2
BITMAP
00
00
00
1c
1c
1c
1c
1c
1c
1c
1c
1c
00
ENDCHAR
STARTCHAR C240
ENCODING 160
SWIDTH 615 0
DWIDTH 8 0
BBX 8 13 0 -2
BITMAP
00
00
00
00
00
00
00
00
00
00
00
00
00
ENDCHAR
STARTCHAR exclamdown
ENCODING 161
SWIDTH 615 0
DWIDTH 8 0
BBX 8 13 0 -2
BITMAP
36
00
7f
21
20
24
3c
24
20
21
7f
00
00
ENDCHAR
STARTCHAR cent
ENCODING 162
SWIDTH 615 0
DWIDTH 8 0
BBX 8 13 0 -2
BITMAP
00
00
00
00
08
1c
22
20
22
1c
08
00
00
ENDCHAR
STARTCHAR sterling
ENCODING 184
SWIDTH 615 0
DWIDTH 8 0
BBX 8 13 0 -2
BITMAP
00
00
00
18
24
20
10
3c
10
10
3e
00
00
ENDCHAR
STARTCHAR currency
ENCODING 164
SWIDTH 615 0
DWIDTH 8 0
BBX 8 13 0 -2
BITMAP
00
00
41
3e
22
22
22
3e
41
00
00
00
00
ENDCHAR
STARTCHAR yen
ENCODING 165
SWIDTH 615 0
DWIDTH 8 0
BBX 8 13 0 -2
BITMAP
00
00
00
77
22
7f
14
7f
08
08
1c
00
00
ENDCHAR
STARTCHAR brokenbar
ENCODING 166
SWIDTH 615 0
DWIDTH 8 0
BBX 8 13 0 -2
BITMAP
00
00
08
08
08
08
08
00
08
08
08
08
08
ENDCHAR
STARTCHAR section
ENCODING 167
SWIDTH 615 0
DWIDTH 8 0
BBX 8 13 0 -2
BITMAP
00
00
1e
22
50
48
24
12
0a
44
78
00
00
ENDCHAR
STARTCHAR dieresis
ENCODING 168
SWIDTH 615 0
DWIDTH 8 0
BBX 8 13 0 -2
BITMAP
00
00
22
00
00
00
00
00
00
00
00
00
00
ENDCHAR
STARTCHAR copyright
ENCODING 169
SWIDTH 615 0
DWIDTH 8 0
BBX 8 13 0 -2
BITMAP
00
00
1c
22
4d
51
51
4d
22
1c
00
00
00
ENDCHAR
STARTCHAR ordfeminine
ENCODING 170
SWIDTH 615 0
DWIDTH 8 0
BBX 8 13 0 -2
BITMAP
00
00
18
04
1c
24
1c
00
3c
00
00
00
00
ENDCHAR
STARTCHAR guillemotleft
ENCODING 171
SWIDTH 615 0
DWIDTH 8 0
BBX 8 13 0 -2
BITMAP
00
00
00
00
00
00
11
22
44
22
11
00
00
ENDCHAR
STARTCHAR logicalnot
ENCODING 172
SWIDTH 615 0
DWIDTH 8 0
BBX 8 13 0 -2
BITMAP
00
00
00
00
00
3e
02
00
00
00
00
00
00
ENDCHAR
STARTCHAR hyphen
ENCODING 173
SWIDTH 615 0
DWIDTH 8 0
BBX 8 13 0 -2
BITMAP
00
00
00
00
00
00
00
7f
00
00
00
00
00
ENDCHAR
STARTCHAR registered
ENCODING 174
SWIDTH 615 0
DWIDTH 8 0
BBX 8 13 0 -2
BITMAP
00
00
1c
22
59
55
59
55
22
1c
00
00
00
ENDCHAR
STARTCHAR macron
ENCODING 175
SWIDTH 615 0
DWIDTH 8 0
BBX 8 13 0 -2
BITMAP
00
ff
00
00
00
00
00
00
00
00
00
00
00
ENDCHAR
STARTCHAR degree
ENCODING 176
SWIDTH 615 0
DWIDTH 8 0
BBX 8 13 0 -2
BITMAP
00
00
08
14
08
00
00
00
00
00
00
00
00
ENDCHAR
STARTCHAR plusminus
ENCODING 177
SWIDTH 615 0
DWIDTH 8 0
BBX 8 13 0 -2
BITMAP
00
00
08
08
08
7f
08
08
08
00
7f
00
00
ENDCHAR
STARTCHAR twosuperior
ENCODING 178
SWIDTH 615 0
DWIDTH 8 0
BBX 8 13 0 -2
BITMAP
00
00
08
14
04
08
1c
00
00
00
00
00
00
ENDCHAR
STARTCHAR threesuperior
ENCODING 168
SWIDTH 615 0
DWIDTH 8 0
BBX 8 13 0 -2
BITMAP
00
00
18
04
08
04
18
00
00
00
00
00
00
ENDCHAR
STARTCHAR acute
ENCODING 180
SWIDTH 615 0
DWIDTH 8 0
BBX 8 13 0 -2
BITMAP
00
00
04
08
00
00
00
00
00
00
00
00
00
ENDCHAR
STARTCHAR mu
ENCODING 181
SWIDTH 615 0
DWIDTH 8 0
BBX 8 13 0 -2
BITMAP
00
00
00
00
00
22
22
22
22
22
3c
20
40
ENDCHAR
STARTCHAR paragraph
ENCODING 182
SWIDTH 615 0
DWIDTH 8 0
BBX 8 13 0 -2
BITMAP
00
00
3f
7a
7a
7a
3a
0a
0a
0a
1b
00
00
ENDCHAR
STARTCHAR periodcentered
ENCODING 183
SWIDTH 615 0
DWIDTH 8 0
BBX 8 13 0 -2
BITMAP
00
00
00
00
00
00
00
08
00
00
00
00
00
ENDCHAR
STARTCHAR cedilla
ENCODING 184
SWIDTH 615 0
DWIDTH 8 0
BBX 8 13 0 -2
BITMAP
00
00
00
00
00
00
00
00
00
00
08
04
18
ENDCHAR
STARTCHAR onesuperior
ENCODING 185
SWIDTH 615 0
DWIDTH 8 0
BBX 8 13 0 -2
BITMAP
00
00
18
08
08
08
1c
00
00
00
00
00
00
ENDCHAR
STARTCHAR ordmasculine
ENCODING 186
SWIDTH 615 0
DWIDTH 8 0
BBX 8 13 0 -2
BITMAP
00
00
18
24
24
24
18
00
3c
00
00
00
00
ENDCHAR
STARTCHAR guillemotright
ENCODING 187
SWIDTH 615 0
DWIDTH 8 0
BBX 8 13 0 -2
BITMAP
00
00
00
00
00
00
44
22
11
22
44
00
00
ENDCHAR
STARTCHAR onequarter
ENCODING 188
SWIDTH 615 0
DWIDTH 8 0
BBX 8 13 0 -2
BITMAP
00
00
60
21
22
24
79
13
25
4f
01
00
00
ENDCHAR
STARTCHAR onehalf
ENCODING 189
SWIDTH 615 0
DWIDTH 8 0
BBX 8 13 0 -2
BITMAP
00
00
60
21
22
24
7a
15
21
42
07
00
00
ENDCHAR
STARTCHAR threequarters
ENCODING 190
SWIDTH 615 0
DWIDTH 8 0
BBX 8 13 0 -2
BITMAP
00
00
60
11
22
14
69
13
25
4f
01
00
00
ENDCHAR
STARTCHAR questiondown
ENCODING 191
SWIDTH 615 0
DWIDTH 8 0
BBX 8 13 0 -2
BITMAP
00
00
00
36
00
3e
41
7f
40
41
3e
00
00
ENDCHAR
STARTCHAR cyr-A
ENCODING 192
SWIDTH 615 0
DWIDTH 8 0
BBX 8 13 0 -2
BITMAP
00
00
08
08
08
14
14
22
3e
22
77
00
00
ENDCHAR
STARTCHAR cyr-Be
ENCODING 193
SWIDTH 615 0
DWIDTH 8 0
BBX 8 13 0 -2
BITMAP
00
00
7f
21
20
20
3e
21
21
21
7e
00
00
ENDCHAR
STARTCHAR cyr-Ve
ENCODING 194
SWIDTH 615 0
DWIDTH 8 0
BBX 8 13 0 -2
BITMAP
00
00
7e
21
21
21
3e
21
21
21
7e
00
00
ENDCHAR
STARTCHAR cyr-Ghe
ENCODING 195
SWIDTH 615 0
DWIDTH 8 0
BBX 8 13 0 -2
BITMAP
00
00
7f
21
20
20
20
20
20
20
78
00
00
ENDCHAR
STARTCHAR cyr-De
ENCODING 196
SWIDTH 615 0
DWIDTH 8 0
BBX 8 13 0 -2
BITMAP
00
00
3f
12
12
12
12
12
12
22
7f
41
00
ENDCHAR
STARTCHAR cyr-Ie
ENCODING 197
SWIDTH 615 0
DWIDTH 8 0
BBX 8 13 0 -2
BITMAP
00
00
7f
21
20
24
3c
24
20
21
7f
00
00
ENDCHAR
STARTCHAR cyr-Zhe
ENCODING 198
SWIDTH 615 0
DWIDTH 8 0
BBX 8 13 0 -2
BITMAP
00
00
6b
2a
2a
2a
1c
2a
2a
2a
6b
00
00
ENDCHAR
STARTCHAR cyr-Ze
ENCODING 199
SWIDTH 615 0
DWIDTH 8 0
BBX 8 13 0 -2
BITMAP
00
00
5c
62
42
02
1c
02
42
42
3c
00
00
ENDCHAR
STARTCHAR cyr-I
ENCODING 200
SWIDTH 615 0
DWIDTH 8 0
BBX 8 13 0 -2
BITMAP
00
00
77
22
22
26
2a
2a
32
22
77
00
00
ENDCHAR
STARTCHAR cyr-I-short
ENCODING 201
SWIDTH 615 0
DWIDTH 8 0
BBX 8 13 0 -2
BITMAP
14
08
77
22
22
26
2a
2a
32
22
77
00
00
ENDCHAR
STARTCHAR cyr-Ka
ENCODING 202
SWIDTH 615 0
DWIDTH 8 0
BBX 8 13 0 -2
BITMAP
00
00
73
22
24
24
28
38
24
22
73
00
00
ENDCHAR
STARTCHAR cyr-El
ENCODING 203
SWIDTH 615 0
DWIDTH 8 0
BBX 8 13 0 -2
BITMAP
00
00
3f
12
12
12
12
12
12
12
67
00
00
ENDCHAR
STARTCHAR cyr-Em
ENCODING 204
SWIDTH 615 0
DWIDTH 8 0
BBX 8 13 0 -2
BITMAP
00
00
63
22
36
36
2a
2a
22
22
77
00
00
ENDCHAR
STARTCHAR cyr-En
ENCODING 205
SWIDTH 615 0
DWIDTH 8 0
BBX 8 13 0 -2
BITMAP
00
00
77
22
22
22
3e
22
22
22
77
00
00
ENDCHAR
STARTCHAR cyr-O
ENCODING 206
SWIDTH 615 0
DWIDTH 8 0
BBX 8 13 0 -2
BITMAP
00
00
1c
22
41
41
41
41
41
22
1c
00
00
ENDCHAR
STARTCHAR cyr-Pe
ENCODING 207
SWIDTH 615 0
DWIDTH 8 0
BBX 8 13 0 -2
BITMAP
00
00
7f
22
22
22
22
22
22
22
77
00
00
ENDCHAR
STARTCHAR cyr-Er
ENCODING 208
SWIDTH 615 0
DWIDTH 8 0
BBX 8 13 0 -2
BITMAP
00
00
7e
21
21
21
3e
20
20
20
70
00
00
ENDCHAR
STARTCHAR cyr-Es
ENCODING 209
SWIDTH 615 0
DWIDTH 8 0
BBX 8 13 0 -2
BITMAP
00
00
1d
23
41
40
40
40
41
21
1e
00
00
ENDCHAR
STARTCHAR cyr-Te
ENCODING 210
SWIDTH 615 0
DWIDTH 8 0
BBX 8 13 0 -2
BITMAP
00
00
7f
49
08
08
08
08
08
08
1c
00
00
ENDCHAR
STARTCHAR cyr-U
ENCODING 211
SWIDTH 615 0
DWIDTH 8 0
BBX 8 13 0 -2
BITMAP
00
00
77
22
22
14
14
08
08
48
30
00
00
ENDCHAR
STARTCHAR cyr-Ef
ENCODING 212
SWIDTH 615 0
DWIDTH 8 0
BBX 8 13 0 -2
BITMAP
00
08
1c
2a
49
49
49
49
2a
1c
08
00
00
ENDCHAR
STARTCHAR cyr-Kha
ENCODING 213
SWIDTH 615 0
DWIDTH 8 0
BBX 8 13 0 -2
BITMAP
00
00
77
22
14
14
08
14
14
22
77
00
00
ENDCHAR
STARTCHAR cyr-Tse
ENCODING 214
SWIDTH 615 0
DWIDTH 8 0
BBX 8 13 0 -2
BITMAP
00
00
77
22
22
22
22
22
22
22
7f
01
00
ENDCHAR
STARTCHAR cyr-Che
ENCODING 215
SWIDTH 615 0
DWIDTH 8 0
BBX 8 13 0 -2
BITMAP
00
00
77
22
22
22
26
1a
02
02
07
00
00
ENDCHAR
STARTCHAR cyr-Sha
ENCODING 216
SWIDTH 615 0
DWIDTH 8 0
BBX 8 13 0 -2
BITMAP
00
00
6b
2a
2a
2a
2a
2a
2a
2a
7f
00
00
ENDCHAR
STARTCHAR cyr-Shcha
ENCODING 217
SWIDTH 615 0
DWIDTH 8 0
BBX 8 13 0 -2
BITMAP
00
00
6b
2a
2a
2a
2a
2a
2a
2a
7f
01
00
ENDCHAR
STARTCHAR cyr-Ier
ENCODING 218
SWIDTH 615 0
DWIDTH 8 0
BBX 8 13 0 -2
BITMAP
00
00
78
50
50
10
1e
11
11
11
3e
00
00
ENDCHAR
STARTCHAR cyr-Iery
ENCODING 219
SWIDTH 615 0
DWIDTH 8 0
BBX 8 13 0 -2
BITMAP
00
00
e7
42
42
42
72
4a
4a
4a
f7
00
00
ENDCHAR
STARTCHAR cyr-Ierik
ENCODING 220
SWIDTH 615 0
DWIDTH 8 0
BBX 8 13 0 -2
BITMAP
00
00
70
20
20
20
3e
21
21
21
7e
00
00
ENDCHAR
STARTCHAR cyr-E-rev
ENCODING 221
SWIDTH 615 0
DWIDTH 8 0
BBX 8 13 0 -2
BITMAP
00
00
38
44
02
02
3e
02
02
44
38
00
00
ENDCHAR
STARTCHAR cyr-Yu
ENCODING 222
SWIDTH 615 0
DWIDTH 8 0
BBX 8 13 0 -2
BITMAP
00
00
ee
51
51
51
71
51
51
51
ee
00
00
ENDCHAR
STARTCHAR cyr-Ya
ENCODING 223
SWIDTH 615 0
DWIDTH 8 0
BBX 8 13 0 -2
BITMAP
00
00
3f
42
42
42
3e
12
12
22
67
00
00
ENDCHAR
STARTCHAR cyr-a
ENCODING 224
SWIDTH 615 0
DWIDTH 8 0
BBX 8 13 0 -2
BITMAP
00
00
00
00
00
3c
02
3e
42
42
3d
00
00
ENDCHAR
STARTCHAR cyr-be
ENCODING 225
SWIDTH 615 0
DWIDTH 8 0
BBX 8 13 0 -2
BITMAP
00
00
01
1e
20
3e
21
21
21
21
1e
00
00
ENDCHAR
STARTCHAR cyr-ve
ENCODING 226
SWIDTH 615 0
DWIDTH 8 0
BBX 8 13 0 -2
BITMAP
00
00
00
00
00
7e
21
3e
21
21
7e
00
00
ENDCHAR
STARTCHAR cyr-ghe
ENCODING 227
SWIDTH 615 0
DWIDTH 8 0
BBX 8 13 0 -2
BITMAP
00
00
00
00
00
7e
22
20
20
20
70
00
00
ENDCHAR
STARTCHAR cyr-de
ENCODING 228
SWIDTH 615 0
DWIDTH 8 0
BBX 8 13 0 -2
BITMAP
00
00
00
00
00
3f
12
12
12
22
7f
41
00
ENDCHAR
STARTCHAR cyr-ie
ENCODING 229
SWIDTH 615 0
DWIDTH 8 0
BBX 8 13 0 -2
BITMAP
00
00
00
00
00
3e
41
7f
40
41
3e
00
00
ENDCHAR
STARTCHAR cyr-zhe
ENCODING 230
SWIDTH 615 0
DWIDTH 8 0
BBX 8 13 0 -2
BITMAP
00
00
00
00
00
6b
2a
1c
2a
2a
6b
00
00
ENDCHAR
STARTCHAR cyr-z
ENCODING 231
SWIDTH 615 0
DWIDTH 8 0
BBX 8 13 0 -2
BITMAP
00
00
00
00
00
7e
41
0e
01
41
3e
00
00
ENDCHAR
STARTCHAR cyr-i
ENCODING 232
SWIDTH 615 0
DWIDTH 8 0
BBX 8 13 0 -2
BITMAP
00
00
00
00
00
77
22
26
2a
32
77
00
00
ENDCHAR
STARTCHAR cyr-i-short
ENCODING 233
SWIDTH 615 0
DWIDTH 8 0
BBX 8 13 0 -2
BITMAP
00
00
00
1c
00
77
22
26
2a
32
77
00
00
ENDCHAR
STARTCHAR cyr-ka
ENCODING 234
SWIDTH 615 0
DWIDTH 8 0
BBX 8 13 0 -2
BITMAP
00
00
00
00
00
76
24
28
38
24
73
00
00
ENDCHAR
STARTCHAR cyr-el
ENCODING 235
SWIDTH 615 0
DWIDTH 8 0
BBX 8 13 0 -2
BITMAP
00
00
00
00
00
3f
12
12
12
12
67
00
00
ENDCHAR
STARTCHAR cyr-em
ENCODING 236
SWIDTH 615 0
DWIDTH 8 0
BBX 8 13 0 -2
BITMAP
00
00
00
00
00
63
36
2a
2a
22
77
00
00
ENDCHAR
STARTCHAR cyr-en
ENCODING 237
SWIDTH 615 0
DWIDTH 8 0
BBX 8 13 0 -2
BITMAP
00
00
00
00
00
77
22
3e
22
22
77
00
00
ENDCHAR
STARTCHAR cyr-o
ENCODING 238
SWIDTH 615 0
DWIDTH 8 0
BBX 8 13 0 -2
BITMAP
00
00
00
00
00
3e
41
41
41
41
3e
00
00
ENDCHAR
STARTCHAR cyr-pe
ENCODING 239
SWIDTH 615 0
DWIDTH 8 0
BBX 8 13 0 -2
BITMAP
00
00
00
00
00
7f
22
22
22
22
77
00
00
ENDCHAR
STARTCHAR cyr-er
ENCODING 240
SWIDTH 615 0
DWIDTH 8 0
BBX 8 13 0 -2
BITMAP
00
00
00
00
00
7e
21
21
21
21
3e
20
70
ENDCHAR
STARTCHAR cyr-es
ENCODING 241
SWIDTH 615 0
DWIDTH 8 0
BBX 8 13 0 -2
BITMAP
00
00
00
00
00
3e
41
40
40
41
3e
00
00
ENDCHAR
STARTCHAR cyr-te
ENCODING 242
SWIDTH 615 0
DWIDTH 8 0
BBX 8 13 0 -2
BITMAP
00
00
00
00
00
7f
49
08
08
08
1c
00
00
ENDCHAR
STARTCHAR cyr-u
ENCODING 243
SWIDTH 615 0
DWIDTH 8 0
BBX 8 13 0 -2
BITMAP
00
00
00
00
00
77
22
22
14
14
08
48
30
ENDCHAR
STARTCHAR cyr-ef
ENCODING 244
SWIDTH 615 0
DWIDTH 8 0
BBX 8 13 0 -2
BITMAP
00
00
00
1c
08
3e
49
49
49
49
3e
08
1c
ENDCHAR
STARTCHAR cyr-kha
ENCODING 245
SWIDTH 615 0
DWIDTH 8 0
BBX 8 13 0 -2
BITMAP
00
00
00
00
00
77
22
1c
22
22
77
00
00
ENDCHAR
STARTCHAR cyr-tse
ENCODING 246
SWIDTH 615 0
DWIDTH 8 0
BBX 8 13 0 -2
BITMAP
00
00
00
00
00
77
22
22
22
22
7f
01
00
ENDCHAR
STARTCHAR cyr-che
ENCODING 247
SWIDTH 615 0
DWIDTH 8 0
BBX 8 13 0 -2
BITMAP
00
00
00
00
00
77
22
26
1a
02
07
00
00
ENDCHAR
STARTCHAR cyr-sha
ENCODING 248
SWIDTH 615 0
DWIDTH 8 0
BBX 8 13 0 -2
BITMAP
00
00
00
00
00
6b
2a
2a
2a
2a
7f
00
00
ENDCHAR
STARTCHAR cyr-shcha
ENCODING 249
SWIDTH 615 0
DWIDTH 8 0
BBX 8 13 0 -2
BITMAP
00
00
00
00
00
6b
2a
2a
2a
2a
7f
01
00
ENDCHAR
STARTCHAR cyr-ier
ENCODING 250
SWIDTH 615 0
DWIDTH 8 0
BBX 8 13 0 -2
BITMAP
00
00
00
00
00
78
50
1e
11
11
3e
00
00
ENDCHAR
STARTCHAR cyr-iery
ENCODING 251
SWIDTH 615 0
DWIDTH 8 0
BBX 8 13 0 -2
BITMAP
00
00
00
00
00
e7
42
72
4a
4a
f7
00
00
ENDCHAR
STARTCHAR cyr-ierik
ENCODING 252
SWIDTH 615 0
DWIDTH 8 0
BBX 8 13 0 -2
BITMAP
00
00
00
00
00
70
20
3c
22
22
7c
00
00
ENDCHAR
STARTCHAR cyr-e-rev
ENCODING 253
SWIDTH 615 0
DWIDTH 8 0
BBX 8 13 0 -2
BITMAP
00
00
00
00
00
3e
41
0f
01
41
3e
00
00
ENDCHAR
STARTCHAR cyr-yu
ENCODING 254
SWIDTH 615 0
DWIDTH 8 0
BBX 8 13 0 -2
BITMAP
00
00
00
00
00
ee
51
71
51
51
ee
00
00
ENDCHAR
STARTCHAR cyr-ya
ENCODING 255
SWIDTH 615 0
DWIDTH 8 0
BBX 8 13 0 -2
BITMAP
00
00
00
00
00
1f
22
22
1e
12
67
00
00
ENDCHAR
ENDFONT
